<svg width="24" height="24" viewBox="0 0 24 24" fill="none" xmlns="http://www.w3.org/2000/svg">
<path d="M4 12C4 12 3 9 5 7C7 5 9 4 12 4C15 4 18 5 19 8C20 11 20 14 18 16C16 18 12 20 8 20C6 20 4 18 4 16V12Z" stroke="currentColor" stroke-width="2" stroke-linecap="round" stroke-linejoin="round"/>
<path d="M14 8C14.5523 8 15 7.55228 15 7C15 6.44772 14.5523 6 14 6C13.4477 6 13 6.44772 13 7C13 7.55228 13.4477 8 14 8Z" fill="currentColor"/>
<path d="M7 13H9" stroke="currentColor" stroke-width="2" stroke-linecap="round"/>
<path d="M16 16C16 16 15 17 14 17" stroke="currentColor" stroke-width="2" stroke-linecap="round"/>
</svg>
